<svg xmlns="http://www.w3.org/2000/svg" viewBox="0 0 372 84" width="372" height="84">
  <line x1="9.1" y1="62.0" x2="36.0" y2="18.0" stroke="#6c8aec" stroke-width="5" stroke-linecap="round" opacity="0.35"/>
  <line x1="22.6" y1="62.0" x2="36.0" y2="18.0" stroke="#6c8aec" stroke-width="5" stroke-linecap="round" opacity="0.6"/>
  <line x1="36.0" y1="62.0" x2="36.0" y2="18.0" stroke="#6c8aec" stroke-width="6" stroke-linecap="round"/>
  <line x1="49.4" y1="62.0" x2="36.0" y2="18.0" stroke="#6c8aec" stroke-width="5" stroke-linecap="round" opacity="0.6"/>
  <line x1="62.9" y1="62.0" x2="36.0" y2="18.0" stroke="#6c8aec" stroke-width="5" stroke-linecap="round" opacity="0.35"/>
  <circle cx="36.0" cy="10.0" r="5.5" fill="#6c8aec"/>
  <path transform="translate(0,4)" d="M80.39 57.73 L96.00 14.00 L105.75 14.00 L121.30 57.73 L112.76 57.73 L109.27 47.28 L92.30 47.28 L88.72 57.73 L80.39 57.73 Z M94.47 40.91 L107.15 40.91 L105.10 34.75 Q104.13 31.72 103.12 28.44 Q102.10 25.15 100.87 21.02 Q99.64 25.15 98.61 28.44 Q97.58 31.72 96.59 34.75 L94.47 40.91 Z M136.00 58.35 Q131.13 58.35 128.05 55.22 Q124.97 52.07 124.97 46.10 L124.97 26.74 L132.37 26.74 L132.37 44.93 Q132.37 48.34 134.01 50.11 Q135.66 51.86 138.62 51.86 Q141.56 51.86 143.47 50.04 Q145.40 48.22 145.40 44.26 L145.40 26.74 L152.83 26.74 L152.83 57.73 L145.55 57.73 L145.55 52.98 Q142.29 58.35 136.00 58.35 Z M175.75 26.74 L175.75 32.69 L169.44 32.69 L169.44 48.84 Q169.44 50.51 170.12 51.15 Q170.79 51.78 172.58 51.78 L175.75 51.78 L175.75 57.73 L171.29 57.73 Q166.57 57.73 164.28 55.83 Q162.01 53.92 162.01 49.93 L162.01 32.69 L156.61 32.69 L156.61 26.74 L162.01 26.74 L162.01 18.28 L169.44 18.28 L169.44 26.74 L175.75 26.74 Z M194.27 58.44 Q189.70 58.44 186.26 56.40 Q182.82 54.36 180.89 50.73 Q178.98 47.08 178.98 42.26 Q178.98 37.45 180.89 33.80 Q182.82 30.14 186.26 28.09 Q189.70 26.03 194.27 26.03 Q198.82 26.03 202.26 28.09 Q205.72 30.14 207.64 33.80 Q209.56 37.45 209.56 42.26 Q209.56 47.08 207.64 50.73 Q205.72 54.36 202.26 56.40 Q198.82 58.44 194.27 58.44 Z M194.27 52.25 Q197.82 52.25 199.93 49.58 Q202.05 46.90 202.05 42.26 Q202.05 37.62 199.93 34.93 Q197.82 32.22 194.27 32.22 Q190.69 32.22 188.58 34.91 Q186.46 37.59 186.46 42.26 Q186.46 46.90 188.58 49.58 Q190.69 52.25 194.27 52.25 Z M228.37 58.44 Q223.86 58.44 220.44 56.38 Q217.02 54.32 215.12 50.69 Q213.23 47.04 213.23 42.26 Q213.23 37.48 215.12 33.83 Q217.02 30.17 220.44 28.11 Q223.86 26.03 228.37 26.03 Q232.28 26.03 235.33 27.54 Q238.39 29.06 240.25 31.71 Q242.12 34.36 242.43 37.83 L235.18 37.83 Q234.78 35.34 233.06 33.77 Q231.34 32.19 228.47 32.19 Q224.82 32.19 222.77 34.93 Q220.72 37.65 220.72 42.26 Q220.72 46.85 222.77 49.56 Q224.82 52.28 228.47 52.28 Q231.37 52.28 232.99 50.74 Q234.60 49.19 235.13 46.61 L242.43 46.61 Q242.17 50.01 240.30 52.69 Q238.44 55.36 235.37 56.90 Q232.31 58.44 228.37 58.44 Z M261.25 58.44 Q256.68 58.44 253.24 56.40 Q249.80 54.36 247.88 50.73 Q245.96 47.08 245.96 42.26 Q245.96 37.45 247.88 33.80 Q249.80 30.14 253.24 28.09 Q256.68 26.03 261.25 26.03 Q265.80 26.03 269.25 28.09 Q272.70 30.14 274.62 33.80 Q276.54 37.45 276.54 42.26 Q276.54 47.08 274.62 50.73 Q272.70 54.36 269.25 56.40 Q265.80 58.44 261.25 58.44 Z M261.25 52.25 Q264.80 52.25 266.92 49.58 Q269.03 46.90 269.03 42.26 Q269.03 37.62 266.92 34.93 Q264.80 32.22 261.25 32.22 Q257.67 32.22 255.56 34.91 Q253.45 37.59 253.45 42.26 Q253.45 46.90 255.56 49.58 Q257.67 52.25 261.25 52.25 Z M281.65 57.73 L281.65 26.74 L288.82 26.74 L288.82 32.11 Q290.23 29.11 292.72 27.62 Q295.22 26.12 298.15 26.12 Q301.29 26.12 303.70 27.72 Q306.10 29.32 307.07 31.99 Q308.31 29.32 310.92 27.72 Q313.53 26.12 316.93 26.12 Q321.34 26.12 324.33 28.97 Q327.33 31.82 327.33 37.28 L327.33 57.73 L319.90 57.73 L319.90 38.33 Q319.90 35.25 318.21 33.83 Q316.53 32.40 314.14 32.40 Q311.32 32.40 309.70 34.17 Q308.07 35.92 308.07 38.71 L308.07 57.73 L300.88 57.73 L300.88 37.98 Q300.88 35.45 299.29 33.93 Q297.70 32.40 295.24 32.40 Q292.75 32.40 290.89 34.15 Q289.05 35.89 289.05 39.24 L289.05 57.73 L281.65 57.73 Z M333.87 70.00 L333.87 26.74 L341.15 26.74 L341.15 31.05 L341.23 31.05 Q342.71 28.59 345.17 27.36 Q347.64 26.12 350.63 26.12 Q354.62 26.12 357.62 28.16 Q360.64 30.20 362.32 33.83 Q364.01 37.45 364.01 42.21 Q364.01 47.04 362.35 50.67 Q360.70 54.30 357.67 56.32 Q354.66 58.35 350.60 58.35 Q347.55 58.35 345.18 57.03 Q342.82 55.70 341.36 53.06 L341.27 53.06 L341.27 70.00 L333.87 70.00 Z M348.87 52.15 Q352.31 52.15 354.42 49.59 Q356.54 47.02 356.54 42.21 Q356.54 37.42 354.42 34.83 Q352.31 32.25 348.87 32.25 Q345.23 32.25 343.04 34.97 Q340.86 37.69 340.86 42.21 Q340.86 46.72 343.04 49.44 Q345.23 52.15 348.87 52.15 Z" fill="#1a1a2e"/>
</svg>